<svg xmlns="http://www.w3.org/2000/svg" width="256" height="256" viewBox="0 0 100 100"><rect width="100" height="100" rx="20" fill="#000000"></rect><path fill="#fff" d="M72.24 48.33L72.24 74.74Q68.50 78.78 63.07 80.83Q57.65 82.87 51.19 82.87L51.19 82.87Q40.16 82.87 34.05 76.04Q27.94 69.20 27.76 56.15L27.76 56.15L27.76 44.64Q27.76 31.41 33.54 24.27Q39.32 17.13 50.40 17.13L50.40 17.13Q60.81 17.13 66.11 22.27Q71.40 27.41 72.24 38.40L72.24 38.40L59.67 38.40Q59.14 32.29 57.12 30.07Q55.10 27.85 50.79 27.85L50.79 27.85Q45.56 27.85 43.19 31.67Q40.82 35.50 40.73 43.85L40.73 43.85L40.73 55.45Q40.73 64.19 43.34 68.17Q45.96 72.15 51.93 72.15L51.93 72.15Q55.76 72.15 58.13 70.61L58.13 70.61L59.27 69.82L59.27 58.09L50.22 58.09L50.22 48.33L72.24 48.33Z"></path></svg>